<svg width="44" height="37" viewBox="0 0 44 37" fill="none" xmlns="http://www.w3.org/2000/svg">
<rect x="0.450195" y="0.64978" width="43.2468" height="36.1348" fill="#1E552A"/>
<path d="M7.53379 16.2444L4.16162 3.91187H5.6791L8.2564 13.9561H8.37683L11.0023 3.91187H12.6884L15.3139 13.9561H15.4343L18.0116 3.91187H19.5291L16.1569 16.2444H14.6153L11.8935 6.4169H11.7972L9.07535 16.2444H7.53379Z" fill="white"/>
<path d="M21.3898 16.2444V3.91187H28.8326V5.23665H22.8832V9.40368H28.4472V10.7285H22.8832V14.9196H28.929V16.2444H21.3898Z" fill="white"/>
<path d="M31.5243 16.2444V3.91187H35.8359C36.695 3.91187 37.4036 4.0604 37.9616 4.35747C38.5196 4.65053 38.9351 5.04596 39.2081 5.54375C39.4811 6.03754 39.6175 6.58551 39.6175 7.18769C39.6175 7.7176 39.5232 8.15518 39.3345 8.50042C39.1499 8.84567 38.905 9.11865 38.5999 9.31938C38.2988 9.5201 37.9716 9.66864 37.6183 9.76499V9.88542C37.9957 9.90951 38.3751 10.042 38.7564 10.2829C39.1378 10.5237 39.457 10.869 39.7139 11.3186C39.9708 11.7682 40.0993 12.3182 40.0993 12.9685C40.0993 13.5868 39.9588 14.1428 39.6778 14.6366C39.3968 15.1303 38.9532 15.5218 38.347 15.8108C37.7408 16.0998 36.9519 16.2444 35.9804 16.2444H31.5243ZM33.0177 14.9196H35.9804C36.9559 14.9196 37.6484 14.7309 38.0579 14.3535C38.4714 13.9722 38.6782 13.5105 38.6782 12.9685C38.6782 12.551 38.5718 12.1656 38.359 11.8124C38.1462 11.4551 37.8431 11.1701 37.4497 10.9573C37.0563 10.7405 36.5906 10.6321 36.0527 10.6321H33.0177V14.9196ZM33.0177 9.33142H35.7877C36.2374 9.33142 36.6428 9.2431 37.0041 9.06646C37.3694 8.88983 37.6585 8.64093 37.8713 8.31977C38.088 7.99861 38.1964 7.62125 38.1964 7.18769C38.1964 6.64573 38.0077 6.18607 37.6304 5.80871C37.253 5.42733 36.6549 5.23665 35.8359 5.23665H33.0177V9.33142Z" fill="white"/>
<path d="M9.82526 25.2098C9.76745 24.7216 9.533 24.3426 9.12192 24.0729C8.71084 23.8031 8.20662 23.6682 7.60926 23.6682C7.17248 23.6682 6.79031 23.7389 6.46272 23.8802C6.13835 24.0215 5.88464 24.2158 5.70158 24.4631C5.52173 24.7104 5.4318 24.9914 5.4318 25.3061C5.4318 25.5695 5.49443 25.7959 5.61968 25.9854C5.74815 26.1716 5.91194 26.3274 6.11106 26.4526C6.31017 26.5747 6.51893 26.6759 6.73731 26.7561C6.9557 26.8332 7.15643 26.8958 7.33949 26.944L8.3415 27.2138C8.59843 27.2812 8.88426 27.3744 9.199 27.4932C9.51694 27.612 9.82044 27.7742 10.1095 27.9798C10.4017 28.1821 10.6426 28.4422 10.8321 28.7602C11.0216 29.0781 11.1163 29.4683 11.1163 29.9308C11.1163 30.4639 10.9766 30.9457 10.6972 31.376C10.421 31.8064 10.0163 32.1484 9.48322 32.4021C8.95331 32.6558 8.30939 32.7827 7.55145 32.7827C6.8449 32.7827 6.2331 32.6687 5.71603 32.4407C5.20218 32.2126 4.79752 31.8947 4.50205 31.4868C4.2098 31.0789 4.0444 30.6052 4.00586 30.0657H5.23911C5.27122 30.4382 5.39648 30.7465 5.61486 30.9906C5.83646 31.2315 6.11587 31.4113 6.45309 31.5302C6.79352 31.6458 7.15964 31.7036 7.55145 31.7036C8.0075 31.7036 8.41698 31.6297 8.77988 31.482C9.14279 31.3311 9.43023 31.1223 9.6422 30.8557C9.85416 30.586 9.96014 30.2712 9.96014 29.9115C9.96014 29.5839 9.86861 29.3174 9.68555 29.1118C9.50249 28.9063 9.26162 28.7393 8.96295 28.6108C8.66427 28.4824 8.3415 28.37 7.99465 28.2736L6.78067 27.9268C6.00989 27.7052 5.39969 27.3888 4.95007 26.9777C4.50044 26.5667 4.27563 26.0287 4.27563 25.3639C4.27563 24.8115 4.42497 24.3298 4.72365 23.9187C5.02554 23.5044 5.4302 23.1833 5.93763 22.9552C6.44827 22.724 7.01833 22.6084 7.6478 22.6084C8.28369 22.6084 8.84893 22.7224 9.34352 22.9504C9.8381 23.1752 10.2299 23.4835 10.519 23.8753C10.8112 24.2672 10.9654 24.712 10.9814 25.2098H9.82526Z" fill="white"/>
<path d="M13.0806 32.6093V22.7433H14.2753V27.1367H19.5359V22.7433H20.7306V32.6093H19.5359V28.1965H14.2753V32.6093H13.0806Z" fill="white"/>
<path d="M31.4469 27.6763C31.4469 28.7168 31.259 29.6161 30.8832 30.374C30.5075 31.1319 29.992 31.7164 29.3369 32.1275C28.6817 32.5386 27.9334 32.7442 27.092 32.7442C26.2505 32.7442 25.5022 32.5386 24.8471 32.1275C24.1919 31.7164 23.6764 31.1319 23.3007 30.374C22.9249 29.6161 22.737 28.7168 22.737 27.6763C22.737 26.6357 22.9249 25.7365 23.3007 24.9785C23.6764 24.2206 24.1919 23.6361 24.8471 23.225C25.5022 22.8139 26.2505 22.6084 27.092 22.6084C27.9334 22.6084 28.6817 22.8139 29.3369 23.225C29.992 23.6361 30.5075 24.2206 30.8832 24.9785C31.259 25.7365 31.4469 26.6357 31.4469 27.6763ZM30.2907 27.6763C30.2907 26.822 30.1478 26.101 29.862 25.5133C29.5793 24.9255 29.1955 24.4807 28.7106 24.1788C28.2289 23.877 27.6893 23.726 27.092 23.726C26.4946 23.726 25.9534 23.877 25.4685 24.1788C24.9868 24.4807 24.603 24.9255 24.3171 25.5133C24.0345 26.101 23.8932 26.822 23.8932 27.6763C23.8932 28.5305 24.0345 29.2515 24.3171 29.8393C24.603 30.427 24.9868 30.8718 25.4685 31.1737C25.9534 31.4756 26.4946 31.6265 27.092 31.6265C27.6893 31.6265 28.2289 31.4756 28.7106 31.1737C29.1955 30.8718 29.5793 30.427 29.862 29.8393C30.1478 29.2515 30.2907 28.5305 30.2907 27.6763Z" fill="white"/>
<path d="M33.4557 32.6093V22.7433H36.7893C37.5633 22.7433 38.196 22.883 38.6874 23.1624C39.182 23.4386 39.5481 23.8127 39.7858 24.2848C40.0234 24.7569 40.1422 25.2836 40.1422 25.8649C40.1422 26.4462 40.0234 26.9745 39.7858 27.4498C39.5513 27.9252 39.1884 28.3041 38.697 28.5868C38.2057 28.8662 37.5762 29.0059 36.8086 29.0059H34.4192V27.946H36.7701C37.3 27.946 37.7255 27.8545 38.0467 27.6714C38.3678 27.4884 38.6007 27.2411 38.7452 26.9296C38.8929 26.6148 38.9668 26.26 38.9668 25.8649C38.9668 25.4699 38.8929 25.1166 38.7452 24.8051C38.6007 24.4936 38.3662 24.2495 38.0419 24.0729C37.7175 23.893 37.2871 23.8031 36.7508 23.8031H34.6504V32.6093H33.4557Z" fill="white"/>
<path d="M40.7257 19.245V20.0072H3.41992V19.245H40.7257Z" fill="white"/>
</svg>
